<?xml version="1.0" encoding="UTF-8"?>
<svg width="32" height="32" viewBox="0 0 32 32" fill="none" xmlns="http://www.w3.org/2000/svg">
  <!-- Background -->
  <rect width="32" height="32" rx="8" fill="#10121a"/>
  
  <!-- Gradient Border -->
  <rect x="1" y="1" width="30" height="30" rx="7" fill="none" stroke="url(#gradientBorder)" stroke-width="1"/>
  
  <!-- DV text -->
  <path d="M9 8.5C9 7.67157 9.67157 7 10.5 7H13.5C16.5376 7 19 9.46243 19 12.5C19 15.5376 16.5376 18 13.5 18H10.5C9.67157 18 9 17.3284 9 16.5V8.5Z" fill="url(#gradientFill)"/>
  <path d="M11 9V16H13.5C15.433 16 17 14.433 17 12.5C17 10.567 15.433 9 13.5 9H11Z" fill="#10121a"/>
  
  <path d="M20 7.5C20 7.22386 20.2239 7 20.5 7C20.7761 7 21 7.22386 21 7.5V18H23L19 25L15 18H17V7.5C17 7.22386 17.2239 7 17.5 7C17.7761 7 18 7.22386 18 7.5V18" stroke="url(#gradientFill)" stroke-width="2" stroke-linejoin="round"/>
  
  <!-- Gradients -->
  <defs>
    <linearGradient id="gradientBorder" x1="0" y1="0" x2="32" y2="32" gradientUnits="userSpaceOnUse">
      <stop offset="0%" stop-color="#8a2be2"/>
      <stop offset="100%" stop-color="#68dcfd"/>
    </linearGradient>
    
    <linearGradient id="gradientFill" x1="9" y1="7" x2="22" y2="25" gradientUnits="userSpaceOnUse">
      <stop offset="0%" stop-color="#8a2be2"/>
      <stop offset="100%" stop-color="#68dcfd"/>
    </linearGradient>
  </defs>
</svg> 